<svg height="512" viewBox="0 0 128 128" width="512" xmlns="http://www.w3.org/2000/svg" xmlns:xlink="http://www.w3.org/1999/xlink"><linearGradient id="a" gradientUnits="userSpaceOnUse" x1="119.357" x2="8.643" y1="112.598" y2="1.883"><stop offset="0" stop-color="#7b49ad"/><stop offset="1" stop-color="#6aa8fb"/></linearGradient><path d="m74.916 36.624a1.749 1.749 0 0 1 -.21-2.466l1.6-1.9a1.75 1.75 0 1 1 2.675 2.256l-1.6 1.9a1.749 1.749 0 0 1 -2.465.21zm47.821 72.594-13.519 13.519a1.749 1.749 0 0 1 -2.475 0l-4.2-4.195a1.752 1.752 0 0 1 0-2.475l1.5-1.5-6.685-6.684a1.75 1.75 0 1 1 2.475-2.475l6.685 6.685 5.565-5.566-14.883-14.893-5.566 5.566 2.621 2.622a1.75 1.75 0 1 1 -2.474 2.475l-2.622-2.622-6.573 6.572a1.748 1.748 0 0 1 -2.474 0 10.755 10.755 0 0 1 -.507-14.641l-15.605-13.157-15.6 13.156a10.755 10.755 0 0 1 -.507 14.641 1.748 1.748 0 0 1 -2.474 0l-6.573-6.572-14.896 14.89 1.5 1.5a1.752 1.752 0 0 1 0 2.475l-4.2 4.195a1.749 1.749 0 0 1 -2.475 0l-13.512-13.516a1.749 1.749 0 0 1 0-2.475l4.2-4.2a1.8 1.8 0 0 1 2.475 0l1.5 1.5 14.891-14.89-6.572-6.572a1.749 1.749 0 0 1 0-2.475 10.755 10.755 0 0 1 14.643-.501l12.04-14.277-15.919-13.416a1.75 1.75 0 0 1 2.256-2.676l47.283 39.864 7.04-7.041-13.312-15.787c-.008-.009-.018-.015-.026-.024s-.013-.022-.022-.032l-41.666-49.425-24.933-7.65 7.651 24.933 10.689 9.011a1.75 1.75 0 0 1 -2.256 2.676l-11.083-9.343a1.755 1.755 0 0 1 -.545-.824l-8.77-28.58a1.751 1.751 0 0 1 2.186-2.187l28.58 8.77a1.746 1.746 0 0 1 .825.545l27.582 32.716 6.6-7.823a1.75 1.75 0 0 1 2.676 2.256l-6.982 8.282 4.421 5.244 32.745-32.745a1.75 1.75 0 0 1 2.474 2.475l-32.962 32.953 4.341 5.149 33.895-28.578 7.651-24.933-24.933 7.65-10.744 12.746a1.75 1.75 0 1 1 -2.676-2.256l11.076-13.136a1.746 1.746 0 0 1 .825-.545l28.58-8.77a1.751 1.751 0 0 1 2.186 2.187l-8.77 28.58a1.755 1.755 0 0 1 -.545.824l-34.289 28.91 12.036 14.277a10.755 10.755 0 0 1 14.641.507 1.749 1.749 0 0 1 0 2.475l-6.572 6.572 14.891 14.89 1.5-1.5a1.8 1.8 0 0 1 2.475 0l4.195 4.2a1.749 1.749 0 0 1 .002 2.469zm-101 8.087-11.037-11.046-1.725 1.721 11.045 11.045zm14.629-20.105-5.566-5.566-14.89 14.89 5.565 5.566zm9.048-3.68-10.932-10.933a7.26 7.26 0 0 0 -8.866-1.087l20.884 20.883a7.264 7.264 0 0 0 -1.086-8.864zm15.871-17.36-3.785-3.188-4.155 4.155a1.75 1.75 0 0 1 -2.474-2.475l3.944-3.944-3.706-3.124-12.209 14.476 7.04 7.04zm41.1 5.339a7.26 7.26 0 0 0 -8.866 1.088l-10.933 10.932a7.264 7.264 0 0 0 -1.086 8.864zm16.641 26.481-1.721-1.721-11.045 11.046 1.72 1.72zm-43.139-30.343a1.751 1.751 0 0 0 1.238-2.988l-52.581-52.58a1.75 1.75 0 0 0 -2.474 2.475l52.58 52.58a1.743 1.743 0 0 0 1.237.513z" fill="url(#a)"/></svg>